<svg width="306" height="167" viewBox="0 0 306 167" fill="none" xmlns="http://www.w3.org/2000/svg">
	<path d="M0 8.86522C0 4.44695 3.58172 0.865219 8 0.865219C12.4183 0.865219 16 4.44694 16 8.86522V158.865C16 163.283 12.4183 166.865 8 166.865C3.58172 166.865 0 163.283 0 158.865V8.86522Z" fill="url(#paint0_linear_25_85)"/>
	<path d="M150 8.86522C150 4.44695 153.582 0.865219 158 0.865219C162.418 0.865219 166 4.44694 166 8.86522V158.865C166 163.283 162.418 166.865 158 166.865C153.582 166.865 150 163.283 150 158.865V8.86522Z" fill="url(#paint1_linear_25_85)"/>
	<path d="M76.5614 80.1413L29.5676 12.5683C27.045 8.94101 27.9405 3.95549 31.5679 1.43285C35.1952 -1.08978 40.1807 -0.194251 42.7033 3.43308L83.1324 61.5665L123.561 3.43308C126.084 -0.194251 131.07 -1.08978 134.697 1.43285C138.324 3.95549 139.22 8.94101 136.697 12.5683L89.7033 80.1413C88.6377 81.6736 87.1326 82.7184 85.4761 83.224C84.7087 83.4596 83.9185 83.5748 83.1324 83.5744C80.603 83.5732 78.1151 82.3754 76.5614 80.1413Z" fill="url(#paint2_linear_25_85)"/>
	<path d="M135 158.865V64.8652C135 62.208 133.705 59.8534 131.711 58.3985C128.083 55.8759 123.054 56.8058 120.531 60.4331L83.0081 114.388L45.4686 60.4093C42.946 56.7819 37.9376 55.8606 34.3103 58.3832C32.3046 59.8369 31 62.1987 31 64.8652V158.865C31 163.283 34.5817 166.865 39 166.865C43.4183 166.865 47 163.283 47 158.865V90.6346L76.2964 132.76C77.7747 134.886 80.0328 136.365 83.0081 136.365C85.9733 136.365 88.0203 135.204 89.7033 132.784L119 90.6579V158.865C119 163.283 122.582 166.865 127 166.865C131.418 166.865 135 163.283 135 158.865Z" fill="url(#paint3_linear_25_85)"/>
	<path d="M306 40.8652C306 45.2835 302.418 48.8652 298 48.8652H270V158.865C270 163.284 266.418 166.865 262 166.865C257.582 166.865 254 163.284 254 158.865V40.8652C254 36.447 257.582 32.8652 262 32.8652H298C302.418 32.8652 306 36.447 306 40.8652Z" fill="url(#paint4_linear_25_85)"/>
	<path d="M196 48.8652C191.582 48.8652 188 45.2835 188 40.8652C188 36.447 191.582 32.8652 196 32.8652H232C236.418 32.8652 240 36.447 240 40.8652V158.865C240 163.284 236.418 166.865 232 166.865C227.582 166.865 224 163.284 224 158.865V48.8652H196Z" fill="url(#paint5_linear_25_85)"/>
	<path d="M196 2.86523H298C302.418 2.86523 306 6.44696 306 10.8652C306 15.2835 302.418 18.8652 298 18.8652H196C191.582 18.8652 188 15.2835 188 10.8652C188 6.44696 191.582 2.86523 196 2.86523Z" fill="url(#paint6_linear_25_85)"/>
	<defs>
		<linearGradient id="paint0_linear_25_85" x1="-1.35621" y1="-14.771" x2="204.894" y2="87.241" gradientUnits="userSpaceOnUse">
			<stop stop-color="#6DBFFF"/>
			<stop offset="1" stop-color="#3592FF"/>
		</linearGradient>
		<linearGradient id="paint1_linear_25_85" x1="-1.35621" y1="-14.771" x2="204.894" y2="87.241" gradientUnits="userSpaceOnUse">
			<stop stop-color="#6DBFFF"/>
			<stop offset="1" stop-color="#3592FF"/>
		</linearGradient>
		<linearGradient id="paint2_linear_25_85" x1="-1.35621" y1="-14.771" x2="204.894" y2="87.241" gradientUnits="userSpaceOnUse">
			<stop stop-color="#6DBFFF"/>
			<stop offset="1" stop-color="#3592FF"/>
		</linearGradient>
		<linearGradient id="paint3_linear_25_85" x1="-1.35621" y1="-14.771" x2="204.894" y2="87.241" gradientUnits="userSpaceOnUse">
			<stop stop-color="#6DBFFF"/>
			<stop offset="1" stop-color="#3592FF"/>
		</linearGradient>
		<linearGradient id="paint4_linear_25_85" x1="187.036" y1="-11.6521" x2="348.811" y2="46.2194" gradientUnits="userSpaceOnUse">
			<stop stop-color="#6DBFFF"/>
			<stop offset="1" stop-color="#3592FF"/>
		</linearGradient>
		<linearGradient id="paint5_linear_25_85" x1="187.036" y1="-11.6521" x2="348.811" y2="46.2194" gradientUnits="userSpaceOnUse">
			<stop stop-color="#6DBFFF"/>
			<stop offset="1" stop-color="#3592FF"/>
		</linearGradient>
		<linearGradient id="paint6_linear_25_85" x1="187.036" y1="-11.6521" x2="348.811" y2="46.2194" gradientUnits="userSpaceOnUse">
			<stop stop-color="#6DBFFF"/>
			<stop offset="1" stop-color="#3592FF"/>
		</linearGradient>
	</defs>
</svg>
